<svg preserveAspectRatio="none" width="100%" height="100%" overflow="visible" style="display: block;" viewBox="0 0 87 52" fill="none" xmlns="http://www.w3.org/2000/svg">
<g id="Frame 2147224627">
<rect width="87" height="52" rx="26" fill="var(--fill-0, white)" fill-opacity="0.1"/>
<path id="Vector" d="M26.5 38L24.6875 36.2997C22.5833 34.3161 20.8438 32.6049 19.4688 31.1662C18.0938 29.7275 17 28.436 16.1875 27.2916C15.375 26.1471 14.8073 25.0954 14.4844 24.1362C14.1615 23.1771 14 22.1962 14 21.1935C14 19.1444 14.6562 17.4332 15.9688 16.0599C17.2812 14.6866 18.9167 14 20.875 14C21.9583 14 22.9896 14.2398 23.9688 14.7193C24.9479 15.1989 25.7917 15.8747 26.5 16.7466C27.2083 15.8747 28.0521 15.1989 29.0312 14.7193C30.0104 14.2398 31.0417 14 32.125 14C34.0833 14 35.7188 14.6866 37.0312 16.0599C38.3438 17.4332 39 19.1444 39 21.1935C39 22.1962 38.8385 23.1771 38.5156 24.1362C38.1927 25.0954 37.625 26.1471 36.8125 27.2916C36 28.436 34.9062 29.7275 33.5312 31.1662C32.1562 32.6049 30.4167 34.3161 28.3125 36.2997L26.5 38ZM26.5 34.4687C28.5 32.594 30.1458 30.9864 31.4375 29.6458C32.7292 28.3052 33.75 27.139 34.5 26.1471C35.25 25.1553 35.7708 24.2725 36.0625 23.4986C36.3542 22.7248 36.5 21.9564 36.5 21.1935C36.5 19.8856 36.0833 18.7956 35.25 17.9237C34.4167 17.0518 33.375 16.6158 32.125 16.6158C31.1458 16.6158 30.2396 16.9046 29.4062 17.4823C28.5729 18.0599 28 18.7956 27.6875 19.6894H25.3125C25 18.7956 24.4271 18.0599 23.5938 17.4823C22.7604 16.9046 21.8542 16.6158 20.875 16.6158C19.625 16.6158 18.5833 17.0518 17.75 17.9237C16.9167 18.7956 16.5 19.8856 16.5 21.1935C16.5 21.9564 16.6458 22.7248 16.9375 23.4986C17.2292 24.2725 17.75 25.1553 18.5 26.1471C19.25 27.139 20.2708 28.3052 21.5625 29.6458C22.8542 30.9864 24.5 32.594 26.5 34.4687Z" fill="var(--fill-0, #DADADA)"/>
<path id="Vector_2" d="M69.3333 38C68.3148 38 67.4491 37.65 66.7361 36.95C66.0231 36.25 65.6667 35.4 65.6667 34.4C65.6667 34.28 65.6972 34 65.7583 33.56L57.1722 28.64C56.8463 28.94 56.4694 29.175 56.0417 29.345C55.6139 29.515 55.1556 29.6 54.6667 29.6C53.6481 29.6 52.7824 29.25 52.0694 28.55C51.3565 27.85 51 27 51 26C51 25 51.3565 24.15 52.0694 23.45C52.7824 22.75 53.6481 22.4 54.6667 22.4C55.1556 22.4 55.6139 22.485 56.0417 22.655C56.4694 22.825 56.8463 23.06 57.1722 23.36L65.7583 18.44C65.7176 18.3 65.6921 18.165 65.6819 18.035C65.6718 17.905 65.6667 17.76 65.6667 17.6C65.6667 16.6 66.0231 15.75 66.7361 15.05C67.4491 14.35 68.3148 14 69.3333 14C70.3519 14 71.2176 14.35 71.9306 15.05C72.6435 15.75 73 16.6 73 17.6C73 18.6 72.6435 19.45 71.9306 20.15C71.2176 20.85 70.3519 21.2 69.3333 21.2C68.8444 21.2 68.3861 21.115 67.9583 20.945C67.5306 20.775 67.1537 20.54 66.8278 20.24L58.2417 25.16C58.2824 25.3 58.3079 25.435 58.3181 25.565C58.3282 25.695 58.3333 25.84 58.3333 26C58.3333 26.16 58.3282 26.305 58.3181 26.435C58.3079 26.565 58.2824 26.7 58.2417 26.84L66.8278 31.76C67.1537 31.46 67.5306 31.225 67.9583 31.055C68.3861 30.885 68.8444 30.8 69.3333 30.8C70.3519 30.8 71.2176 31.15 71.9306 31.85C72.6435 32.55 73 33.4 73 34.4C73 35.4 72.6435 36.25 71.9306 36.95C71.2176 37.65 70.3519 38 69.3333 38ZM69.3333 35.6C69.6796 35.6 69.9699 35.485 70.2042 35.255C70.4384 35.025 70.5556 34.74 70.5556 34.4C70.5556 34.06 70.4384 33.775 70.2042 33.545C69.9699 33.315 69.6796 33.2 69.3333 33.2C68.987 33.2 68.6968 33.315 68.4625 33.545C68.2282 33.775 68.1111 34.06 68.1111 34.4C68.1111 34.74 68.2282 35.025 68.4625 35.255C68.6968 35.485 68.987 35.6 69.3333 35.6ZM54.6667 27.2C55.013 27.2 55.3032 27.085 55.5375 26.855C55.7718 26.625 55.8889 26.34 55.8889 26C55.8889 25.66 55.7718 25.375 55.5375 25.145C55.3032 24.915 55.013 24.8 54.6667 24.8C54.3204 24.8 54.0301 24.915 53.7958 25.145C53.5616 25.375 53.4444 25.66 53.4444 26C53.4444 26.34 53.5616 26.625 53.7958 26.855C54.0301 27.085 54.3204 27.2 54.6667 27.2ZM70.2042 18.455C70.4384 18.225 70.5556 17.94 70.5556 17.6C70.5556 17.26 70.4384 16.975 70.2042 16.745C69.9699 16.515 69.6796 16.4 69.3333 16.4C68.987 16.4 68.6968 16.515 68.4625 16.745C68.2282 16.975 68.1111 17.26 68.1111 17.6C68.1111 17.94 68.2282 18.225 68.4625 18.455C68.6968 18.685 68.987 18.8 69.3333 18.8C69.6796 18.8 69.9699 18.685 70.2042 18.455Z" fill="var(--fill-0, #DADADA)"/>
</g>
</svg>
