<svg width="1440" height="3629" viewBox="0 0 1440 3629" fill="none" xmlns="http://www.w3.org/2000/svg">
<g clip-path="url(#clip0_789_11360)">
<rect width="1440" height="3629" fill="url(#paint0_linear_789_11360)"/>
<g filter="url(#filter0_f_789_11360)">
<ellipse cx="1020.5" cy="1248.5" rx="997.5" ry="702.5" fill="url(#paint1_linear_789_11360)"/>
</g>
<g filter="url(#filter1_f_789_11360)">
<ellipse cx="1045" cy="1240" rx="973" ry="710" fill="url(#paint2_linear_789_11360)"/>
<path d="M1045 530.5C1313.59 530.5 1556.74 609.943 1732.72 738.358C1908.7 866.775 2017.5 1044.14 2017.5 1240C2017.5 1435.86 1908.7 1613.23 1732.72 1741.64C1556.74 1870.06 1313.59 1949.5 1045 1949.5C776.408 1949.5 533.264 1870.06 357.28 1741.64C181.296 1613.23 72.5 1435.86 72.5 1240C72.5 1044.14 181.296 866.775 357.28 738.358C533.264 609.943 776.408 530.5 1045 530.5Z" stroke="white"/>
</g>
<g filter="url(#filter2_f_789_11360)">
<ellipse cx="1045" cy="1240" rx="973" ry="710" fill="url(#paint3_linear_789_11360)"/>
<path d="M1045 531C1313.5 531 1556.54 610.415 1732.43 738.762C1908.32 867.109 2017 1044.34 2017 1240C2017 1435.66 1908.32 1612.89 1732.43 1741.24C1556.54 1869.59 1313.5 1949 1045 1949C776.503 1949 533.464 1869.59 357.574 1741.24C181.684 1612.89 73 1435.66 73 1240C73 1044.34 181.684 867.109 357.574 738.762C533.464 610.415 776.503 531 1045 531Z" stroke="#95F8E7" stroke-width="2"/>
</g>
<g filter="url(#filter3_f_789_11360)">
<ellipse cx="737.133" cy="1349.97" rx="995.862" ry="726.682" transform="rotate(-34.2264 737.133 1349.97)" fill="url(#paint4_linear_789_11360)"/>
<path d="M328.962 749.964C556.182 595.393 807.576 522.684 1030.31 530.042C1253.05 537.4 1447.06 624.813 1559.71 790.401C1672.35 955.989 1682.4 1168.54 1607.44 1378.42C1532.48 1588.29 1372.52 1795.41 1145.3 1949.98C918.083 2104.55 666.69 2177.26 443.952 2169.91C221.212 2162.55 27.2044 2075.14 -85.4405 1909.55C-198.085 1743.96 -208.137 1531.41 -133.175 1321.53C-58.2133 1111.66 101.743 904.535 328.962 749.964Z" stroke="#95F8E7" stroke-width="2"/>
</g>
<g filter="url(#filter4_f_789_11360)">
<ellipse cx="1020.5" cy="1287.5" rx="997.5" ry="700.5" fill="url(#paint5_linear_789_11360)"/>
</g>
<g filter="url(#filter5_f_789_11360)">
<ellipse cx="1012.5" cy="1289" rx="997.5" ry="702" fill="url(#paint6_linear_789_11360)"/>
</g>
<g filter="url(#filter6_f_789_11360)">
<ellipse cx="75.8798" cy="45.1596" rx="75.8798" ry="45.1596" transform="matrix(0.901887 -0.431973 0.35606 0.934463 924.996 570.062)" fill="url(#paint7_linear_789_11360)"/>
</g>
<g filter="url(#filter7_f_789_11360)">
<path d="M1095.16 633.264C1021.62 630.509 920.176 592.694 886.781 571.883L1304.24 595.238C1260.39 619.012 1210.93 637.602 1095.16 633.264Z" fill="#00FFC2"/>
</g>
<g filter="url(#filter8_f_789_11360)">
<path d="M1188.16 688.264C1114.62 685.509 1013.18 647.694 979.781 626.883L1397.24 650.238C1353.39 674.012 1303.93 692.602 1188.16 688.264Z" fill="#00FFC2"/>
</g>
<g filter="url(#filter9_f_789_11360)">
<path d="M1241.59 662.381C1168.05 659.626 1066.61 621.812 1033.21 601L1450.67 624.355C1406.81 648.129 1357.36 666.719 1241.59 662.381Z" fill="#00FFC2"/>
</g>
<g filter="url(#filter10_f_789_11360)">
<path d="M1361.59 758.381C1288.05 755.626 1186.61 717.812 1153.21 697L1570.67 720.355C1526.81 744.129 1477.36 762.719 1361.59 758.381Z" fill="#00FFC2"/>
</g>
<g filter="url(#filter11_f_789_11360)">
<path d="M1315.59 709.381C1242.05 706.626 1140.61 668.812 1107.21 648L1524.67 671.355C1480.81 695.129 1431.36 713.719 1315.59 709.381Z" fill="#00FFC2"/>
</g>
<g filter="url(#filter12_f_789_11360)">
<path d="M1325.59 772.381C1252.05 769.626 1150.61 731.812 1117.21 711L1534.67 734.355C1490.81 758.129 1441.36 776.719 1325.59 772.381Z" fill="#00FFC2"/>
</g>
<g filter="url(#filter13_f_789_11360)">
<path d="M1021.54 601.318C973.463 602.497 906.238 570.631 883.887 551.906L1157.03 552.808C1129.03 578.539 1097.23 599.462 1021.54 601.318Z" fill="url(#paint8_linear_789_11360)"/>
</g>
<g filter="url(#filter14_f_789_11360)">
<ellipse cx="55.8564" cy="24.5479" rx="55.8564" ry="24.5479" transform="matrix(0.901887 -0.431973 0.35606 0.934463 812.461 620.141)" fill="url(#paint9_linear_789_11360)"/>
</g>
<g filter="url(#filter15_f_789_11360)">
<ellipse cx="1109.7" cy="448.985" rx="180" ry="99" transform="rotate(-23.9697 1109.7 448.985)" fill="url(#paint10_linear_789_11360)" fill-opacity="0.6"/>
</g>
<g filter="url(#filter16_if_789_11360)">
<ellipse cx="1047.07" cy="276.064" rx="252.411" ry="149.979" transform="rotate(-53.4012 1047.07 276.064)" fill="url(#paint11_linear_789_11360)" fill-opacity="0.2"/>
<path d="M927.013 186.91C968.53 131.004 1019.57 90.4085 1068.51 69.9545C1117.45 49.4964 1164.22 49.2152 1197.29 73.7768C1230.36 98.3387 1243.61 143.186 1238.18 195.958C1232.74 248.718 1208.63 309.314 1167.12 365.219C1125.6 421.125 1074.56 461.721 1025.62 482.175C976.675 502.633 929.913 502.914 896.839 478.352C863.765 453.79 850.517 408.944 855.952 356.172C861.386 303.411 885.495 242.815 927.013 186.91Z" stroke="#70F2DB" stroke-width="0.885403"/>
</g>
<g filter="url(#filter17_f_789_11360)">
<ellipse cx="1325.5" cy="472.214" rx="254.549" ry="142.578" transform="rotate(-90.3354 1325.5 472.214)" fill="url(#paint12_linear_789_11360)" fill-opacity="0.2"/>
</g>
<rect width="1440" height="2528" transform="translate(0 702)" fill="url(#paint13_linear_789_11360)" fill-opacity="0.4"/>
<rect width="1440" height="2963" transform="translate(0 666)" fill="url(#paint14_linear_789_11360)"/>
<g filter="url(#filter18_f_789_11360)">
<ellipse cx="87.4488" cy="516.107" rx="87.4488" ry="516.107" transform="matrix(0.198698 0.980061 0.976557 -0.215259 770 939.195)" fill="url(#paint15_linear_789_11360)" fill-opacity="0.16"/>
<path d="M787.864 1024.79C789.021 1030.5 793.567 1035.4 801.353 1039.47C809.132 1043.53 820.068 1046.72 833.836 1049.04C861.368 1053.66 900.105 1054.76 947.267 1052.46C1041.58 1047.87 1169.5 1029.69 1308.66 999.018C1447.82 968.344 1571.85 930.984 1659.88 895.383C1703.9 877.581 1738.89 860.228 1762.27 844.383C1773.97 836.458 1782.73 828.928 1788.27 821.927C1793.81 814.922 1796.06 808.521 1794.9 802.815C1793.75 797.109 1789.2 792.206 1781.42 788.137C1773.64 784.072 1762.7 780.884 1748.93 778.572C1721.4 773.949 1682.66 772.848 1635.5 775.145C1541.19 779.738 1413.27 797.914 1274.11 828.588C1134.95 859.263 1010.92 896.623 922.89 932.224C878.871 950.026 843.876 967.379 820.494 983.225C808.801 991.149 800.038 998.679 794.502 1005.68C788.961 1012.69 786.707 1019.09 787.864 1024.79Z" stroke="#70F2DB" stroke-opacity="0.2"/>
</g>
<g filter="url(#filter19_f_789_11360)">
<ellipse cx="38.7126" cy="376.784" rx="38.7126" ry="376.784" transform="matrix(0.198698 0.980061 0.976557 -0.215259 831.953 859.383)" fill="url(#paint16_linear_789_11360)" fill-opacity="0.16"/>
<path d="M840.134 897.216C840.364 898.352 841.159 899.407 842.609 900.363C844.06 901.32 846.126 902.148 848.801 902.836C854.148 904.211 861.816 905 871.574 905.217C891.079 905.651 918.824 903.802 952.805 899.897C1020.76 892.089 1113.59 876.063 1215.19 853.668C1316.78 831.274 1407.89 806.754 1473.07 785.218C1505.66 774.449 1531.75 764.431 1549.41 755.803C1558.25 751.487 1564.96 747.529 1569.31 744.015C1571.49 742.257 1573.06 740.629 1574.02 739.141C1574.97 737.655 1575.29 736.355 1575.06 735.219C1574.83 734.083 1574.03 733.028 1572.58 732.072C1571.13 731.115 1569.07 730.286 1566.39 729.598C1561.04 728.223 1553.38 727.435 1543.62 727.218C1524.11 726.784 1496.37 728.632 1462.39 732.537C1394.43 740.346 1301.6 756.372 1200 778.767C1098.41 801.161 1007.3 825.68 942.125 847.216C909.535 857.985 883.447 868.004 865.778 876.632C856.94 880.948 850.234 884.905 845.878 888.419C843.699 890.177 842.132 891.806 841.176 893.294C840.221 894.78 839.903 896.08 840.134 897.216Z" stroke="#70F2DB" stroke-opacity="0.2"/>
</g>
<g filter="url(#filter20_if_789_11360)">
<path d="M41.8405 3338.57C-9.16978 3287.51 -29.1247 3210.16 -21.4298 3113.89C-13.735 3017.63 21.6054 2902.53 81.0951 2776.08C200.073 2523.17 415.595 2224.95 699.472 1941.37C983.349 1657.8 1281.8 1442.59 1534.83 1323.88C1661.35 1264.53 1776.49 1229.31 1872.76 1221.72C1969.03 1214.12 2046.36 1234.16 2097.37 1285.23C2148.38 1336.29 2168.33 1413.64 2160.64 1509.9C2152.94 1606.16 2117.6 1721.27 2058.11 1847.72C1939.14 2100.63 1723.61 2398.85 1439.74 2682.42C1155.86 2966 857.409 3181.21 604.376 3299.92C477.858 3359.27 362.72 3394.49 266.452 3402.08C170.181 3409.67 92.851 3389.64 41.8405 3338.57Z" stroke="#70F2DB"/>
</g>
<g filter="url(#filter21_f_789_11360)">
<ellipse cx="609.52" cy="2265.49" rx="375.092" ry="206.301" transform="rotate(-23.9697 609.52 2265.49)" fill="url(#paint17_linear_789_11360)" fill-opacity="0.6"/>
</g>
<g filter="url(#filter22_if_789_11360)">
<ellipse cx="487.123" cy="1826.39" rx="594.064" ry="352.984" transform="rotate(-53.4012 487.123 1826.39)" fill="url(#paint18_linear_789_11360)" fill-opacity="0.2"/>
<path d="M204.138 1616.23C301.899 1484.59 422.097 1388.98 537.378 1340.79C652.671 1292.61 762.954 1291.89 841.01 1349.86C919.067 1407.82 950.259 1513.6 937.456 1637.91C924.655 1762.19 867.869 1904.9 770.108 2036.54C672.347 2168.18 552.148 2263.8 436.867 2311.98C321.574 2360.17 211.292 2360.89 133.235 2302.92C55.1788 2244.95 23.9859 2139.17 36.7887 2014.87C49.5902 1890.58 106.377 1747.87 204.138 1616.23Z" stroke="#70F2DB"/>
</g>
<g filter="url(#filter23_f_789_11360)">
<ellipse cx="1059.22" cy="2022.16" rx="530.442" ry="297.11" transform="rotate(-90.3354 1059.22 2022.16)" fill="url(#paint19_linear_789_11360)" fill-opacity="0.2"/>
</g>
<g filter="url(#filter24_if_789_11360)">
<ellipse cx="571.906" cy="2004.75" rx="232.967" ry="498.892" transform="rotate(-134.97 571.906 2004.75)" fill="url(#paint20_linear_789_11360)" fill-opacity="0.4"/>
<path d="M219.303 2356.98C174.056 2311.69 172.313 2231.28 206.376 2137.69C240.424 2044.14 310.188 1937.61 407.615 1840.29C505.041 1742.96 611.649 1673.31 705.233 1639.37C798.86 1605.4 879.263 1607.23 924.51 1652.52C969.756 1697.82 971.499 1778.22 937.436 1871.81C903.388 1965.36 833.624 2071.9 736.198 2169.22C638.771 2266.54 532.163 2336.19 438.579 2370.14C344.952 2404.11 264.549 2402.28 219.303 2356.98Z" stroke="#70F2DB"/>
</g>
<path d="M1009.04 314.075C1056.97 292.767 1105.09 284.171 1144.13 287.478C1183.19 290.786 1213.05 305.99 1224.69 332.154C1236.32 358.319 1227.6 390.675 1203.89 421.893C1180.19 453.095 1141.57 483.063 1093.64 504.371C1045.72 525.679 997.596 534.275 958.553 530.969C919.49 527.66 889.629 512.456 877.997 486.291C866.364 460.127 875.08 427.772 898.793 396.554C922.494 365.351 961.112 335.383 1009.04 314.075Z" stroke="url(#paint21_linear_789_11360)" stroke-width="0.934445"/>
<path d="M1026.54 345.004C1073.37 324.185 1120.38 315.787 1158.53 319.018C1196.69 322.251 1225.86 337.105 1237.23 362.664C1248.59 388.222 1240.08 419.83 1216.91 450.33C1193.76 480.815 1156.02 510.094 1109.2 530.913C1062.37 551.731 1015.36 560.13 977.211 556.899C939.047 553.667 909.877 538.813 898.514 513.254C887.15 487.695 895.664 456.087 918.831 425.587C941.986 395.103 979.717 365.823 1026.54 345.004Z" stroke="url(#paint22_linear_789_11360)" stroke-width="0.934445"/>
<path d="M964.96 284.832C1016.2 262.052 1067.64 252.861 1109.39 256.396C1151.15 259.933 1183.08 276.19 1195.53 304.175C1207.97 332.16 1198.64 366.76 1173.29 400.135C1147.95 433.495 1106.66 465.533 1055.43 488.313C1004.19 511.093 952.744 520.283 911.001 516.748C869.238 513.211 837.303 496.955 824.861 468.97C812.419 440.985 821.744 406.385 847.095 373.009C872.435 339.649 913.722 307.612 964.96 284.832Z" stroke="url(#paint23_linear_789_11360)" stroke-width="0.934445"/>
<g filter="url(#filter25_if_789_11360)">
<ellipse cx="1088.92" cy="342.414" rx="104.468" ry="223.715" transform="rotate(-134.97 1088.92 342.414)" fill="url(#paint24_linear_789_11360)" fill-opacity="0.4"/>
<path d="M930.972 500.191C910.789 479.986 909.965 444.059 925.233 402.11C940.486 360.201 971.747 312.459 1015.42 268.836C1059.09 225.214 1106.86 194.003 1148.79 178.794C1190.75 163.572 1226.68 164.433 1246.86 184.638C1267.04 204.843 1267.87 240.77 1252.6 282.718C1237.35 324.627 1206.09 372.371 1162.42 415.993C1118.75 459.616 1070.97 490.826 1029.05 506.034C987.082 521.257 951.156 520.396 930.972 500.191Z" stroke="#70F2DB" stroke-width="0.934445"/>
</g>
</g>
<defs>
<filter id="filter0_f_789_11360" x="-37" y="486" width="2115" height="1525" filterUnits="userSpaceOnUse" color-interpolation-filters="sRGB">
<feFlood flood-opacity="0" result="BackgroundImageFix"/>
<feBlend mode="normal" in="SourceGraphic" in2="BackgroundImageFix" result="shape"/>
<feGaussianBlur stdDeviation="30" result="effect1_foregroundBlur_789_11360"/>
</filter>
<filter id="filter1_f_789_11360" x="68" y="526" width="1954" height="1428" filterUnits="userSpaceOnUse" color-interpolation-filters="sRGB">
<feFlood flood-opacity="0" result="BackgroundImageFix"/>
<feBlend mode="normal" in="SourceGraphic" in2="BackgroundImageFix" result="shape"/>
<feGaussianBlur stdDeviation="2" result="effect1_foregroundBlur_789_11360"/>
</filter>
<filter id="filter2_f_789_11360" x="70" y="528" width="1950" height="1424" filterUnits="userSpaceOnUse" color-interpolation-filters="sRGB">
<feFlood flood-opacity="0" result="BackgroundImageFix"/>
<feBlend mode="normal" in="SourceGraphic" in2="BackgroundImageFix" result="shape"/>
<feGaussianBlur stdDeviation="1" result="effect1_foregroundBlur_789_11360"/>
</filter>
<filter id="filter3_f_789_11360" x="-184.336" y="526.531" width="1842.94" height="1646.88" filterUnits="userSpaceOnUse" color-interpolation-filters="sRGB">
<feFlood flood-opacity="0" result="BackgroundImageFix"/>
<feBlend mode="normal" in="SourceGraphic" in2="BackgroundImageFix" result="shape"/>
<feGaussianBlur stdDeviation="1" result="effect1_foregroundBlur_789_11360"/>
</filter>
<filter id="filter4_f_789_11360" x="-57" y="507" width="2155" height="1561" filterUnits="userSpaceOnUse" color-interpolation-filters="sRGB">
<feFlood flood-opacity="0" result="BackgroundImageFix"/>
<feBlend mode="normal" in="SourceGraphic" in2="BackgroundImageFix" result="shape"/>
<feGaussianBlur stdDeviation="40" result="effect1_foregroundBlur_789_11360"/>
</filter>
<filter id="filter5_f_789_11360" x="-65" y="507" width="2155" height="1564" filterUnits="userSpaceOnUse" color-interpolation-filters="sRGB">
<feFlood flood-opacity="0" result="BackgroundImageFix"/>
<feBlend mode="normal" in="SourceGraphic" in2="BackgroundImageFix" result="shape"/>
<feGaussianBlur stdDeviation="40" result="effect1_foregroundBlur_789_11360"/>
</filter>
<filter id="filter6_f_789_11360" x="739.195" y="326.047" width="540.629" height="506.875" filterUnits="userSpaceOnUse" color-interpolation-filters="sRGB">
<feFlood flood-opacity="0" result="BackgroundImageFix"/>
<feBlend mode="normal" in="SourceGraphic" in2="BackgroundImageFix" result="shape"/>
<feGaussianBlur stdDeviation="100" result="effect1_foregroundBlur_789_11360"/>
</filter>
<filter id="filter7_f_789_11360" x="766.781" y="451.883" width="657.461" height="302.016" filterUnits="userSpaceOnUse" color-interpolation-filters="sRGB">
<feFlood flood-opacity="0" result="BackgroundImageFix"/>
<feBlend mode="normal" in="SourceGraphic" in2="BackgroundImageFix" result="shape"/>
<feGaussianBlur stdDeviation="60" result="effect1_foregroundBlur_789_11360"/>
</filter>
<filter id="filter8_f_789_11360" x="859.781" y="506.883" width="657.461" height="302.016" filterUnits="userSpaceOnUse" color-interpolation-filters="sRGB">
<feFlood flood-opacity="0" result="BackgroundImageFix"/>
<feBlend mode="normal" in="SourceGraphic" in2="BackgroundImageFix" result="shape"/>
<feGaussianBlur stdDeviation="60" result="effect1_foregroundBlur_789_11360"/>
</filter>
<filter id="filter9_f_789_11360" x="913.211" y="481" width="657.461" height="302.016" filterUnits="userSpaceOnUse" color-interpolation-filters="sRGB">
<feFlood flood-opacity="0" result="BackgroundImageFix"/>
<feBlend mode="normal" in="SourceGraphic" in2="BackgroundImageFix" result="shape"/>
<feGaussianBlur stdDeviation="60" result="effect1_foregroundBlur_789_11360"/>
</filter>
<filter id="filter10_f_789_11360" x="1033.21" y="577" width="657.461" height="302.016" filterUnits="userSpaceOnUse" color-interpolation-filters="sRGB">
<feFlood flood-opacity="0" result="BackgroundImageFix"/>
<feBlend mode="normal" in="SourceGraphic" in2="BackgroundImageFix" result="shape"/>
<feGaussianBlur stdDeviation="60" result="effect1_foregroundBlur_789_11360"/>
</filter>
<filter id="filter11_f_789_11360" x="987.211" y="528" width="657.461" height="302.016" filterUnits="userSpaceOnUse" color-interpolation-filters="sRGB">
<feFlood flood-opacity="0" result="BackgroundImageFix"/>
<feBlend mode="normal" in="SourceGraphic" in2="BackgroundImageFix" result="shape"/>
<feGaussianBlur stdDeviation="60" result="effect1_foregroundBlur_789_11360"/>
</filter>
<filter id="filter12_f_789_11360" x="997.211" y="591" width="657.461" height="302.016" filterUnits="userSpaceOnUse" color-interpolation-filters="sRGB">
<feFlood flood-opacity="0" result="BackgroundImageFix"/>
<feBlend mode="normal" in="SourceGraphic" in2="BackgroundImageFix" result="shape"/>
<feGaussianBlur stdDeviation="60" result="effect1_foregroundBlur_789_11360"/>
</filter>
<filter id="filter13_f_789_11360" x="803.887" y="471.906" width="433.141" height="209.445" filterUnits="userSpaceOnUse" color-interpolation-filters="sRGB">
<feFlood flood-opacity="0" result="BackgroundImageFix"/>
<feBlend mode="normal" in="SourceGraphic" in2="BackgroundImageFix" result="shape"/>
<feGaussianBlur stdDeviation="40" result="effect1_foregroundBlur_789_11360"/>
</filter>
<filter id="filter14_f_789_11360" x="620.441" y="385.656" width="502.273" height="466.586" filterUnits="userSpaceOnUse" color-interpolation-filters="sRGB">
<feFlood flood-opacity="0" result="BackgroundImageFix"/>
<feBlend mode="normal" in="SourceGraphic" in2="BackgroundImageFix" result="shape"/>
<feGaussianBlur stdDeviation="100" result="effect1_foregroundBlur_789_11360"/>
</filter>
<filter id="filter15_f_789_11360" x="820.334" y="212.656" width="578.725" height="472.656" filterUnits="userSpaceOnUse" color-interpolation-filters="sRGB">
<feFlood flood-opacity="0" result="BackgroundImageFix"/>
<feBlend mode="normal" in="SourceGraphic" in2="BackgroundImageFix" result="shape"/>
<feGaussianBlur stdDeviation="60" result="effect1_foregroundBlur_789_11360"/>
</filter>
<filter id="filter16_if_789_11360" x="783.496" y="-16.3166" width="527.139" height="584.766" filterUnits="userSpaceOnUse" color-interpolation-filters="sRGB">
<feFlood flood-opacity="0" result="BackgroundImageFix"/>
<feBlend mode="normal" in="SourceGraphic" in2="BackgroundImageFix" result="shape"/>
<feColorMatrix in="SourceAlpha" type="matrix" values="0 0 0 0 0 0 0 0 0 0 0 0 0 0 0 0 0 0 127 0" result="hardAlpha"/>
<feMorphology radius="5.31242" operator="erode" in="SourceAlpha" result="effect1_innerShadow_789_11360"/>
<feOffset dx="17.7081" dy="17.7081"/>
<feComposite in2="hardAlpha" operator="arithmetic" k2="-1" k3="1"/>
<feColorMatrix type="matrix" values="0 0 0 0 0.0288462 0 0 0 0 1 0 0 0 0 0.792618 0 0 0 0.2 0"/>
<feBlend mode="normal" in2="shape" result="effect1_innerShadow_789_11360"/>
<feGaussianBlur stdDeviation="35.4161" result="effect2_foregroundBlur_789_11360"/>
</filter>
<filter id="filter17_f_789_11360" x="1062.91" y="97.6641" width="525.166" height="749.094" filterUnits="userSpaceOnUse" color-interpolation-filters="sRGB">
<feFlood flood-opacity="0" result="BackgroundImageFix"/>
<feBlend mode="normal" in="SourceGraphic" in2="BackgroundImageFix" result="shape"/>
<feGaussianBlur stdDeviation="60" result="effect1_foregroundBlur_789_11360"/>
</filter>
<filter id="filter18_f_789_11360" x="737.07" y="723.484" width="1108.63" height="380.641" filterUnits="userSpaceOnUse" color-interpolation-filters="sRGB">
<feFlood flood-opacity="0" result="BackgroundImageFix"/>
<feBlend mode="normal" in="SourceGraphic" in2="BackgroundImageFix" result="shape"/>
<feGaussianBlur stdDeviation="25" result="effect1_foregroundBlur_789_11360"/>
</filter>
<filter id="filter19_f_789_11360" x="789.562" y="676.656" width="836.066" height="279.125" filterUnits="userSpaceOnUse" color-interpolation-filters="sRGB">
<feFlood flood-opacity="0" result="BackgroundImageFix"/>
<feBlend mode="normal" in="SourceGraphic" in2="BackgroundImageFix" result="shape"/>
<feGaussianBlur stdDeviation="25" result="effect1_foregroundBlur_789_11360"/>
</filter>
<filter id="filter20_if_789_11360" x="-83.5273" y="1159.66" width="2306.26" height="2304.48" filterUnits="userSpaceOnUse" color-interpolation-filters="sRGB">
<feFlood flood-opacity="0" result="BackgroundImageFix"/>
<feBlend mode="normal" in="SourceGraphic" in2="BackgroundImageFix" result="shape"/>
<feColorMatrix in="SourceAlpha" type="matrix" values="0 0 0 0 0 0 0 0 0 0 0 0 0 0 0 0 0 0 127 0" result="hardAlpha"/>
<feMorphology radius="6" operator="erode" in="SourceAlpha" result="effect1_innerShadow_789_11360"/>
<feOffset dx="20" dy="20"/>
<feComposite in2="hardAlpha" operator="arithmetic" k2="-1" k3="1"/>
<feColorMatrix type="matrix" values="0 0 0 0 0.0288462 0 0 0 0 1 0 0 0 0 0.792618 0 0 0 1 0"/>
<feBlend mode="normal" in2="shape" result="effect1_innerShadow_789_11360"/>
<feGaussianBlur stdDeviation="30" result="effect2_foregroundBlur_789_11360"/>
</filter>
<filter id="filter21_f_789_11360" x="136.596" y="1903.08" width="945.85" height="724.812" filterUnits="userSpaceOnUse" color-interpolation-filters="sRGB">
<feFlood flood-opacity="0" result="BackgroundImageFix"/>
<feBlend mode="normal" in="SourceGraphic" in2="BackgroundImageFix" result="shape"/>
<feGaussianBlur stdDeviation="60" result="effect1_foregroundBlur_789_11360"/>
</filter>
<filter id="filter22_if_789_11360" x="-46.4961" y="1224.95" width="1067.24" height="1202.87" filterUnits="userSpaceOnUse" color-interpolation-filters="sRGB">
<feFlood flood-opacity="0" result="BackgroundImageFix"/>
<feBlend mode="normal" in="SourceGraphic" in2="BackgroundImageFix" result="shape"/>
<feColorMatrix in="SourceAlpha" type="matrix" values="0 0 0 0 0 0 0 0 0 0 0 0 0 0 0 0 0 0 127 0" result="hardAlpha"/>
<feMorphology radius="6" operator="erode" in="SourceAlpha" result="effect1_innerShadow_789_11360"/>
<feOffset dx="20" dy="20"/>
<feComposite in2="hardAlpha" operator="arithmetic" k2="-1" k3="1"/>
<feColorMatrix type="matrix" values="0 0 0 0 0.0288462 0 0 0 0 1 0 0 0 0 0.792618 0 0 0 0.2 0"/>
<feBlend mode="normal" in2="shape" result="effect1_innerShadow_789_11360"/>
<feGaussianBlur stdDeviation="40" result="effect2_foregroundBlur_789_11360"/>
</filter>
<filter id="filter23_f_789_11360" x="642.094" y="1371.72" width="834.242" height="1300.88" filterUnits="userSpaceOnUse" color-interpolation-filters="sRGB">
<feFlood flood-opacity="0" result="BackgroundImageFix"/>
<feBlend mode="normal" in="SourceGraphic" in2="BackgroundImageFix" result="shape"/>
<feGaussianBlur stdDeviation="60" result="effect1_foregroundBlur_789_11360"/>
</filter>
<filter id="filter24_if_789_11360" x="122.344" y="1555.45" width="899.125" height="898.602" filterUnits="userSpaceOnUse" color-interpolation-filters="sRGB">
<feFlood flood-opacity="0" result="BackgroundImageFix"/>
<feBlend mode="normal" in="SourceGraphic" in2="BackgroundImageFix" result="shape"/>
<feColorMatrix in="SourceAlpha" type="matrix" values="0 0 0 0 0 0 0 0 0 0 0 0 0 0 0 0 0 0 127 0" result="hardAlpha"/>
<feMorphology radius="6" operator="erode" in="SourceAlpha" result="effect1_innerShadow_789_11360"/>
<feOffset dx="20" dy="20"/>
<feComposite in2="hardAlpha" operator="arithmetic" k2="-1" k3="1"/>
<feColorMatrix type="matrix" values="0 0 0 0 0.0288462 0 0 0 0 1 0 0 0 0 0.792618 0 0 0 1 0"/>
<feBlend mode="normal" in2="shape" result="effect1_innerShadow_789_11360"/>
<feGaussianBlur stdDeviation="30" result="effect2_foregroundBlur_789_11360"/>
</filter>
<filter id="filter25_if_789_11360" x="858.16" y="111.777" width="461.512" height="461.274" filterUnits="userSpaceOnUse" color-interpolation-filters="sRGB">
<feFlood flood-opacity="0" result="BackgroundImageFix"/>
<feBlend mode="normal" in="SourceGraphic" in2="BackgroundImageFix" result="shape"/>
<feColorMatrix in="SourceAlpha" type="matrix" values="0 0 0 0 0 0 0 0 0 0 0 0 0 0 0 0 0 0 127 0" result="hardAlpha"/>
<feMorphology radius="5.60667" operator="erode" in="SourceAlpha" result="effect1_innerShadow_789_11360"/>
<feOffset dx="18.6889" dy="18.6889"/>
<feComposite in2="hardAlpha" operator="arithmetic" k2="-1" k3="1"/>
<feColorMatrix type="matrix" values="0 0 0 0 0.0288462 0 0 0 0 1 0 0 0 0 0.792618 0 0 0 1 0"/>
<feBlend mode="normal" in2="shape" result="effect1_innerShadow_789_11360"/>
<feGaussianBlur stdDeviation="28.0334" result="effect2_foregroundBlur_789_11360"/>
</filter>
<linearGradient id="paint0_linear_789_11360" x1="720" y1="0" x2="720" y2="3629" gradientUnits="userSpaceOnUse">
<stop stop-color="#011720" stop-opacity="0"/>
<stop offset="0.386761" stop-color="#02534B" stop-opacity="0.4"/>
<stop offset="0.577507" stop-color="#047D6B" stop-opacity="0.6"/>
<stop offset="1" stop-color="#009A81"/>
</linearGradient>
<linearGradient id="paint1_linear_789_11360" x1="1020.5" y1="546" x2="1020.5" y2="881.716" gradientUnits="userSpaceOnUse">
<stop stop-color="#CBFCFC"/>
<stop offset="0.5" stop-color="#E6FDFE"/>
<stop offset="0.75" stop-color="#C5FCF2"/>
<stop offset="0.875" stop-color="#62E2CE"/>
<stop offset="0.9375" stop-color="#20B39E"/>
<stop offset="0.96875" stop-color="#56EBD2"/>
<stop offset="1" stop-color="#10484F"/>
</linearGradient>
<linearGradient id="paint2_linear_789_11360" x1="1045" y1="530" x2="462.869" y2="751.344" gradientUnits="userSpaceOnUse">
<stop stop-color="#CBFCFC"/>
<stop offset="0.5" stop-color="#E6FDFE"/>
<stop offset="0.75" stop-color="#C5FCF2"/>
<stop offset="0.875" stop-color="#62E2CE"/>
<stop offset="0.9375" stop-color="#20B39E"/>
<stop offset="0.96875" stop-color="#56EBD2"/>
<stop offset="1" stop-color="#10484F"/>
</linearGradient>
<linearGradient id="paint3_linear_789_11360" x1="1045" y1="530" x2="462.869" y2="751.344" gradientUnits="userSpaceOnUse">
<stop stop-color="#CBFCFC"/>
<stop offset="0.5" stop-color="#E6FDFE"/>
<stop offset="0.75" stop-color="#C5FCF2"/>
<stop offset="0.875" stop-color="#62E2CE"/>
<stop offset="0.9375" stop-color="#20B39E"/>
<stop offset="0.96875" stop-color="#56EBD2"/>
<stop offset="1" stop-color="#10484F"/>
</linearGradient>
<linearGradient id="paint4_linear_789_11360" x1="737.133" y1="623.292" x2="141.324" y2="849.837" gradientUnits="userSpaceOnUse">
<stop stop-color="#CBFCFC"/>
<stop offset="0.5" stop-color="#E6FDFE"/>
<stop offset="0.75" stop-color="#C5FCF2"/>
<stop offset="0.875" stop-color="#62E2CE"/>
<stop offset="0.9375" stop-color="#20B39E"/>
<stop offset="0.96875" stop-color="#56EBD2"/>
<stop offset="1" stop-color="#10484F"/>
</linearGradient>
<linearGradient id="paint5_linear_789_11360" x1="1020.5" y1="587" x2="1020.5" y2="677.833" gradientUnits="userSpaceOnUse">
<stop stop-color="#5FEAD3"/>
<stop offset="0.182223" stop-color="#10F9D2"/>
<stop offset="0.389104" stop-color="#00FAD1"/>
<stop offset="0.600207" stop-color="#1BFFD9"/>
<stop offset="0.777534" stop-color="#016958"/>
<stop offset="1" stop-color="#00332B"/>
</linearGradient>
<linearGradient id="paint6_linear_789_11360" x1="1061.12" y1="315.94" x2="1055.62" y2="646.4" gradientUnits="userSpaceOnUse">
<stop stop-color="#5FEAD3"/>
<stop offset="0.292044" stop-color="#0AEAC5"/>
<stop offset="0.498854" stop-color="#AAF9EC"/>
<stop offset="0.701311" stop-color="#40E6CB"/>
<stop offset="1" stop-color="#0A4A3F"/>
</linearGradient>
<linearGradient id="paint7_linear_789_11360" x1="151.281" y1="35.4636" x2="2.41468" y2="46.8497" gradientUnits="userSpaceOnUse">
<stop stop-color="#63DCD6"/>
<stop offset="0.5" stop-color="#8EFFE3"/>
</linearGradient>
<linearGradient id="paint8_linear_789_11360" x1="1020.46" y1="552.357" x2="1020.3" y2="601.355" gradientUnits="userSpaceOnUse">
<stop stop-color="#F8FFFE"/>
<stop offset="0.47668" stop-color="#B0FAEE"/>
<stop offset="0.701256" stop-color="#74EDD9"/>
<stop offset="0.858344" stop-color="#1BFFD9"/>
<stop offset="1" stop-color="#97FFEE"/>
</linearGradient>
<linearGradient id="paint9_linear_789_11360" x1="111.36" y1="19.2774" x2="2.30637" y2="30.5728" gradientUnits="userSpaceOnUse">
<stop stop-color="#63DCD6"/>
<stop offset="0.5" stop-color="#8EFFE3"/>
</linearGradient>
<linearGradient id="paint10_linear_789_11360" x1="1288.56" y1="427.729" x2="935.775" y2="456.927" gradientUnits="userSpaceOnUse">
<stop stop-color="#63DCD6"/>
<stop offset="0.5" stop-color="#7FEADD"/>
<stop offset="0.75" stop-color="#6CDAD0"/>
<stop offset="0.875" stop-color="#3F9597"/>
<stop offset="1" stop-color="#10272D"/>
</linearGradient>
<linearGradient id="paint11_linear_789_11360" x1="1297.88" y1="243.863" x2="802.696" y2="281.799" gradientUnits="userSpaceOnUse">
<stop stop-color="#7DE8DA"/>
<stop offset="0.0895633" stop-color="#7BF3E3"/>
<stop offset="0.75" stop-color="#68F3DF"/>
<stop offset="1" stop-color="#8BFBEC"/>
</linearGradient>
<linearGradient id="paint12_linear_789_11360" x1="1578.44" y1="441.602" x2="1079.42" y2="482.157" gradientUnits="userSpaceOnUse">
<stop stop-color="#63DCD6"/>
<stop offset="0.5" stop-color="#7FEADD"/>
<stop offset="0.75" stop-color="#6CDAD0"/>
</linearGradient>
<linearGradient id="paint13_linear_789_11360" x1="720" y1="0" x2="720" y2="2528" gradientUnits="userSpaceOnUse">
<stop stop-color="#011720" stop-opacity="0"/>
<stop offset="1" stop-color="#011720"/>
</linearGradient>
<linearGradient id="paint14_linear_789_11360" x1="720" y1="0" x2="720" y2="5548" gradientUnits="userSpaceOnUse">
<stop stop-color="#011720" stop-opacity="0"/>
<stop offset="0.0516426" stop-color="#00343B" stop-opacity="0.6"/>
<stop offset="0.0960218" stop-color="#004039"/>
<stop offset="0.533508" stop-color="#036C5E"/>
<stop offset="0.694922" stop-color="#047D6B"/>
<stop offset="1" stop-color="#009A81"/>
</linearGradient>
<linearGradient id="paint15_linear_789_11360" x1="27.5685" y1="291.159" x2="-117.062" y2="404.89" gradientUnits="userSpaceOnUse">
<stop stop-color="#004037"/>
<stop offset="0.0895633" stop-color="#00564B"/>
<stop offset="0.75" stop-color="#004239"/>
<stop offset="1" stop-color="#8BFBEC"/>
</linearGradient>
<linearGradient id="paint16_linear_789_11360" x1="12.2043" y1="212.561" x2="-72.2179" y2="252.816" gradientUnits="userSpaceOnUse">
<stop stop-color="#004037"/>
<stop offset="0.0895633" stop-color="#00564B"/>
<stop offset="0.75" stop-color="#004239"/>
<stop offset="1" stop-color="#8BFBEC"/>
</linearGradient>
<linearGradient id="paint17_linear_789_11360" x1="982.246" y1="2221.19" x2="247.095" y2="2282.04" gradientUnits="userSpaceOnUse">
<stop stop-color="#63DCD6"/>
<stop offset="0.5" stop-color="#7FEADD"/>
<stop offset="0.75" stop-color="#6CDAD0"/>
<stop offset="0.875" stop-color="#3F9597"/>
<stop offset="1" stop-color="#10272D"/>
</linearGradient>
<linearGradient id="paint18_linear_789_11360" x1="1077.44" y1="1750.6" x2="-88.0148" y2="1839.88" gradientUnits="userSpaceOnUse">
<stop stop-color="#7DE8DA"/>
<stop offset="0.0895633" stop-color="#7BF3E3"/>
<stop offset="0.75" stop-color="#68F3DF"/>
<stop offset="1" stop-color="#8BFBEC"/>
</linearGradient>
<linearGradient id="paint19_linear_789_11360" x1="1586.31" y1="1958.37" x2="546.434" y2="2042.87" gradientUnits="userSpaceOnUse">
<stop stop-color="#63DCD6"/>
<stop offset="0.5" stop-color="#7FEADD"/>
<stop offset="0.75" stop-color="#6CDAD0"/>
</linearGradient>
<linearGradient id="paint20_linear_789_11360" x1="803.403" y1="1897.64" x2="343.887" y2="1907.41" gradientUnits="userSpaceOnUse">
<stop stop-color="#7DE8DA"/>
<stop offset="0.0895633" stop-color="#7BF3E3"/>
<stop offset="0.75" stop-color="#68F3DF"/>
<stop offset="1" stop-color="#8BFBEC"/>
</linearGradient>
<linearGradient id="paint21_linear_789_11360" x1="1008.85" y1="313.648" x2="1093.83" y2="504.797" gradientUnits="userSpaceOnUse">
<stop stop-color="#BEFCF3"/>
<stop offset="1" stop-color="#6FDDD3"/>
</linearGradient>
<linearGradient id="paint22_linear_789_11360" x1="1026.35" y1="344.578" x2="1109.39" y2="531.34" gradientUnits="userSpaceOnUse">
<stop stop-color="#BEFCF3"/>
<stop offset="1" stop-color="#6FDDD3"/>
</linearGradient>
<linearGradient id="paint23_linear_789_11360" x1="964.77" y1="284.405" x2="1055.62" y2="488.74" gradientUnits="userSpaceOnUse">
<stop stop-color="#BEFCF3"/>
<stop offset="1" stop-color="#6FDDD3"/>
</linearGradient>
<linearGradient id="paint24_linear_789_11360" x1="1192.72" y1="294.382" x2="986.667" y2="298.762" gradientUnits="userSpaceOnUse">
<stop stop-color="#7DE8DA"/>
<stop offset="0.0895633" stop-color="#7BF3E3"/>
<stop offset="0.75" stop-color="#68F3DF"/>
<stop offset="1" stop-color="#8BFBEC"/>
</linearGradient>
<clipPath id="clip0_789_11360">
<rect width="1440" height="3629" fill="white"/>
</clipPath>
</defs>
</svg>
