<svg preserveAspectRatio="none" width="100%" height="100%" overflow="visible" style="display: block;" viewBox="0 0 124.202 26.8" fill="none" xmlns="http://www.w3.org/2000/svg">
<path id="Vector 118" d="M0 3.2C0 4.96731 1.43269 6.4 3.2 6.4C4.96731 6.4 6.4 4.96731 6.4 3.2C6.4 1.43269 4.96731 0 3.2 0C1.43269 0 0 1.43269 0 3.2ZM55.9511 23.8722L56.2888 23.3763L55.9511 23.8722ZM124.2 26.2L124.202 25.6L62.6595 25.3534L62.6571 25.9533L62.6547 26.5533L124.198 26.8L124.2 26.2ZM55.9511 23.8722L56.2888 23.3763L28.987 4.78529L28.6493 5.28123L28.3115 5.77717L55.6134 24.3681L55.9511 23.8722ZM21.8951 3.2V2.6H3.2V3.2V3.8H21.8951V3.2ZM28.6493 5.28123L28.987 4.78529C26.896 3.36146 24.4249 2.6 21.8951 2.6V3.2V3.8C24.1839 3.8 26.4197 4.48894 28.3115 5.77717L28.6493 5.28123ZM62.6571 25.9533L62.6595 25.3534C60.3863 25.3442 58.1677 24.6557 56.2888 23.3763L55.9511 23.8722L55.6134 24.3681C57.6901 25.7823 60.1422 26.5433 62.6547 26.5533L62.6571 25.9533Z" fill="url(#paint0_linear_0_131)"/>
<defs>
<linearGradient id="paint0_linear_0_131" x1="124.2" y1="14.8438" x2="3.21171" y2="13.5012" gradientUnits="userSpaceOnUse">
<stop stop-color="#090A0A"/>
<stop offset="1" stop-color="white"/>
</linearGradient>
</defs>
</svg>
