<svg preserveAspectRatio="none" width="100%" height="100%" overflow="visible" style="display: block;" viewBox="0 0 127.202 26.8" fill="none" xmlns="http://www.w3.org/2000/svg">
<path id="Vector 117" d="M0 3.2C0 4.96731 1.43269 6.4 3.2 6.4C4.96731 6.4 6.4 4.96731 6.4 3.2C6.4 1.43269 4.96731 0 3.2 0C1.43269 0 0 1.43269 0 3.2ZM63.9665 25.9527L63.9642 26.5527L63.9665 25.9527ZM57.3723 23.9475L57.0402 24.4473L57.3723 23.9475ZM127.2 26.2L127.202 25.6L63.9689 25.3527L63.9665 25.9527L63.9642 26.5527L127.198 26.8L127.2 26.2ZM57.3723 23.9475L57.7043 23.4478L29.498 4.70553L29.1659 5.20527L28.8338 5.70501L57.0402 24.4473L57.3723 23.9475ZM22.5247 3.2V2.6H3.2V3.2V3.8H22.5247V3.2ZM29.1659 5.20527L29.498 4.70553C27.4315 3.33246 25.0057 2.6 22.5247 2.6V3.2V3.8C24.7694 3.8 26.9642 4.4627 28.8338 5.70501L29.1659 5.20527ZM63.9665 25.9527L63.9689 25.3527C61.7394 25.344 59.5613 24.6817 57.7043 23.4478L57.3723 23.9475L57.0402 24.4473C59.0927 25.8111 61.5 26.5431 63.9642 26.5527L63.9665 25.9527Z" fill="url(#paint0_linear_0_144)"/>
<defs>
<linearGradient id="paint0_linear_0_144" x1="127.2" y1="14.75" x2="3.20215" y2="14.1817" gradientUnits="userSpaceOnUse">
<stop stop-color="#090A0A"/>
<stop offset="1" stop-color="white"/>
</linearGradient>
</defs>
</svg>
