<svg preserveAspectRatio="none" width="100%" height="100%" overflow="visible" style="display: block;" viewBox="0 0 88.2034 26.8" fill="none" xmlns="http://www.w3.org/2000/svg">
<path id="Vector 115" d="M0 3.2C0 4.96731 1.43269 6.4 3.2 6.4C4.96731 6.4 6.4 4.96731 6.4 3.2C6.4 1.43269 4.96731 0 3.2 0C1.43269 0 0 1.43269 0 3.2ZM47.2099 25.9661L47.2065 26.5661L47.2099 25.9661ZM38.9262 22.5827L38.5086 23.0135L38.9262 22.5827ZM88.2 26.2L88.2034 25.6L47.2134 25.3662L47.2099 25.9661L47.2065 26.5661L88.1966 26.8L88.2 26.2ZM38.9262 22.5827L39.3438 22.1519L22.8388 6.15285L22.4212 6.58367L22.0036 7.01449L38.5086 23.0135L38.9262 22.5827ZM14.069 3.2V2.6H3.2V3.2V3.8H14.069V3.2ZM22.4212 6.58367L22.8388 6.15285C20.4881 3.87423 17.3428 2.6 14.069 2.6V3.2V3.8C17.0311 3.8 19.8768 4.95288 22.0036 7.01449L22.4212 6.58367ZM47.2099 25.9661L47.2134 25.3662C44.2739 25.3494 41.4545 24.1978 39.3438 22.1519L38.9262 22.5827L38.5086 23.0135C40.8414 25.2748 43.9576 26.5476 47.2065 26.5661L47.2099 25.9661Z" fill="url(#paint0_linear_0_132)"/>
<defs>
<linearGradient id="paint0_linear_0_132" x1="3.2" y1="14.7" x2="88.2" y2="14.7" gradientUnits="userSpaceOnUse">
<stop stop-color="white"/>
<stop offset="1" stop-color="#090A0A"/>
</linearGradient>
</defs>
</svg>
