<svg width="103" height="33" viewBox="0 0 103 33" fill="none" xmlns="http://www.w3.org/2000/svg">
<path d="M71.1315 23.7258C72.0769 22.638 73.2829 20.8299 73.2829 20.8299C73.2829 20.8299 73.2289 19.0414 73.2259 18.9513C73.2228 18.8612 73.2259 18.7665 73.2255 18.7661C73.2251 18.7657 73.1552 18.749 73.1394 18.7661C73.0543 18.8589 73.1116 18.7973 73.0256 18.8897L72.8248 19.1053C72.7429 19.1933 72.515 19.4215 72.3945 19.5365C72.1363 19.783 72.0216 19.9062 71.7634 20.1526C71.6021 20.3066 71.3618 20.5222 71.2184 20.6455C71.075 20.7687 70.8455 20.9535 70.7308 21.0459C70.616 21.1383 70.1772 21.4837 69.9849 21.6312C69.7841 21.7852 69.7496 21.8045 69.4112 22.0316C69.3539 22.0701 69.0277 22.2683 68.7228 22.432C68.6654 22.4628 68.3888 22.6001 68.2064 22.6785C68.063 22.7401 67.8335 22.8325 67.5754 22.8941C67.5462 22.901 67.2885 22.9557 67.059 22.9865C66.9437 23.002 66.6287 23.0242 66.4853 23.0173C66.3282 23.0097 66.0665 22.9847 65.9116 22.9557C65.7509 22.9256 65.6339 22.8944 65.4813 22.8325C65.2939 22.7564 65.1892 22.7052 65.0224 22.586L65.0219 22.5857C64.9027 22.5006 64.8163 22.4389 64.7068 22.3396C64.6038 22.2461 64.5418 22.1672 64.4486 22.0624C64.3496 21.951 64.2933 21.8545 64.2183 21.7232C64.1668 21.6332 64.1443 21.5775 64.1057 21.4821L64.1035 21.4768C64.0654 21.3825 64.0754 21.4213 64.047 21.3231C64.0197 21.2284 64.0066 21.1742 63.9897 21.0767C63.9732 20.9813 63.9712 20.9574 63.961 20.8611C63.9483 20.741 63.9323 20.5838 63.9323 20.4606C63.9323 20.3436 63.9443 20.2512 63.9587 20.1396L63.961 20.1218C63.9776 19.9928 63.988 19.9473 64.0156 19.8261L64.0184 19.8138C64.0377 19.7287 64.0533 19.6824 64.0757 19.5982C64.0981 19.5139 64.1044 19.4953 64.1331 19.4133C64.1825 19.2722 64.2088 19.1757 64.2765 19.0437C64.3322 18.9352 64.3893 18.811 64.4486 18.7049C64.5318 18.5561 64.5529 18.5359 64.6494 18.3968C64.8012 18.1782 64.9087 18.0445 65.0788 17.842C65.201 17.6966 65.2683 17.6139 65.3944 17.4724C65.5258 17.3249 65.6042 17.2471 65.7386 17.1027L66.0828 16.7331C66.2733 16.5286 66.3768 16.4105 66.5705 16.2095C66.7471 16.0261 67.0294 15.7474 67.0294 15.7474L67.5458 15.193C67.725 15.0005 67.8296 14.8968 68.0047 14.7001C68.1417 14.5463 68.1905 14.504 68.349 14.2997C68.534 14.0611 68.6193 13.9114 68.7792 13.6528C68.9961 13.3022 69.2104 12.9755 69.3252 12.7599C69.4399 12.5442 69.5027 12.4357 69.612 12.2362C69.7066 12.0637 69.7436 11.9753 69.8415 11.805C69.9101 11.6856 69.9499 11.5888 70.0127 11.4658C70.0729 11.3478 70.1561 11.1577 70.1561 11.1577C70.2145 11.0266 70.2996 10.8189 70.2996 10.8189C70.3536 10.6976 70.4147 10.542 70.4147 10.542C70.4877 10.3563 70.5321 10.2421 70.5868 10.0492C70.6209 9.92906 70.637 9.86438 70.6729 9.71037C70.7087 9.55635 70.7308 9.27912 70.6724 8.90949C70.661 8.83734 70.6733 8.90985 70.6447 8.75547C70.6349 8.70234 70.5848 8.5493 70.5291 8.44708C70.4724 8.34329 70.4348 8.28719 70.3569 8.20065C70.2682 8.10198 70.2097 8.05308 70.0988 7.98503C69.945 7.89067 69.8418 7.87041 69.6685 7.83102C69.4162 7.77367 69.2665 7.77107 69.0086 7.76968C68.7171 7.76811 68.5502 7.77841 68.2629 7.83102C68.0217 7.87518 67.8914 7.92907 67.6605 8.01584C67.3245 8.14209 67.143 8.23682 66.8286 8.41628C66.4281 8.64495 66.2161 8.80139 65.8533 9.09394C65.4345 9.4317 65.221 9.65252 64.8493 10.0488C64.4553 10.4691 64.2546 10.7271 63.9027 11.1886C63.6344 11.5404 63.5592 11.66 63.3012 12.0206C63.0774 12.3335 62.6988 12.8831 62.6988 12.8831L62.1242 13.776L61.5227 14.7929C61.3666 15.058 61.2031 15.3488 61.0638 15.6246C60.9059 15.937 60.7873 16.1888 60.6613 16.5175C60.502 16.9328 60.4308 17.0711 60.3179 17.5035C60.2071 17.9284 60.1338 18.2661 60.0876 18.7045C60.0358 19.1947 60.0023 19.7214 60.0022 20.2142C60.0022 20.8638 59.9973 20.9826 60.0313 21.6312C60.0521 22.0291 60.091 22.2529 60.1449 22.6473C60.173 22.8527 60.1908 22.9678 60.231 23.1709C60.292 23.4795 60.3414 23.6531 60.4253 23.9481L60.4322 23.9722C60.575 24.4745 60.6807 24.7784 60.8624 25.2659L60.8665 25.2769C60.9813 25.5847 61.0375 25.7356 61.1776 26.0356C61.3171 26.3344 61.3987 26.5026 61.5792 26.7749C61.7498 27.0321 61.9115 27.2662 62.1246 27.4837C62.4399 27.8055 62.6079 27.9321 63.0139 28.0998C63.3868 28.2538 63.4814 28.2683 63.8458 28.3154C64.3018 28.3743 64.6265 28.3701 65.0788 28.2843C65.2608 28.2497 65.3608 28.2179 65.5378 28.161C65.8846 28.0496 66.0708 27.9569 66.3984 27.7914C66.6977 27.6402 66.8592 27.5406 67.1442 27.3602C67.7466 26.9788 68.2861 26.5601 68.837 26.0976C69.8671 25.2327 70.2392 24.7523 71.1315 23.7258Z" fill="white" stroke="white" stroke-width="0.0473811"/>
<path d="M71.8712 1.16127C71.751 1.28308 71.8712 1.16127 71.7244 1.31098C71.5776 1.4607 71.4013 1.70024 71.2545 1.90984C71.1623 2.04151 71.0489 2.19932 70.9902 2.2991C70.9162 2.42473 70.8495 2.52766 70.7846 2.65841C70.7259 2.77686 70.6731 2.88061 70.5908 3.06679C70.5085 3.25298 70.4558 3.35474 70.3852 3.54588C70.3342 3.68432 70.3018 3.76141 70.2678 3.9052C70.1736 4.30304 70.1739 4.55526 70.2678 4.9532C70.2876 5.03711 70.3126 5.12554 70.3265 5.1628C70.3856 5.32104 70.4417 5.41864 70.5325 5.55212C70.6019 5.65412 70.6918 5.76013 70.8258 5.88143C70.9665 6.00884 71.0633 6.06581 71.2048 6.14912L71.2079 6.15097C71.3412 6.22941 71.4181 6.2709 71.5603 6.33063C71.6945 6.38695 71.8006 6.41782 71.9421 6.4504C72.2554 6.52252 72.4477 6.50423 72.7644 6.4504C72.9406 6.42046 73.1309 6.33843 73.2049 6.30069C73.3196 6.24222 73.2998 6.24739 73.4101 6.18086C73.5306 6.10821 73.5867 6.06115 73.7042 5.97132C73.8418 5.86608 73.9441 5.76791 74.0738 5.65271C74.1961 5.54409 74.2794 5.47305 74.3969 5.35328C74.5143 5.2335 74.6123 5.14765 74.7199 5.0239L74.7326 5.00932C74.8482 4.87639 74.8981 4.81903 75.0136 4.66459C75.1027 4.54551 75.1651 4.42849 75.2485 4.30527C75.3245 4.19307 75.3366 4.1855 75.3954 4.06573C75.4541 3.94596 75.4784 3.88617 75.5422 3.7663C75.5911 3.67436 75.6138 3.62031 75.6597 3.52676C75.7056 3.43321 75.7192 3.40247 75.7596 3.30634C75.8167 3.17039 75.8401 3.09006 75.877 2.94702C76.023 2.3816 76.0703 2.01725 75.8946 1.4607C75.8411 1.29116 75.792 1.18261 75.7008 1.03068C75.641 0.930928 75.5994 0.879806 75.5246 0.791133C75.44 0.69081 75.3881 0.637831 75.2897 0.551589C75.2027 0.475361 75.1515 0.434711 75.0547 0.371932C74.9249 0.287705 74.8446 0.252008 74.7023 0.192274C74.5682 0.135957 74.4916 0.10433 74.3499 0.0725027C74.0587 0.00708241 73.8775 0.00708245 73.5863 0.0725027C73.4447 0.10433 73.3686 0.137341 73.2339 0.192274C73.0434 0.269961 72.9396 0.323648 72.764 0.431818C72.5951 0.535852 72.5237 0.585317 72.3705 0.712125C72.213 0.842523 72.0152 1.01546 71.8712 1.16127Z" fill="white" stroke="white" stroke-width="0.0473811"/>
<path d="M5.92389 9.38027C6.66437 9.13344 7.33434 9.01003 7.93378 9.01003C8.85057 9.01003 9.56461 9.3362 10.0759 9.98853C10.5872 10.6232 10.9839 11.5312 11.266 12.7125C11.3541 13.0651 11.5304 13.8408 11.7949 15.0397C12.077 16.2386 12.3062 17.2083 12.4825 17.9488C13.029 20.2584 13.5227 22.0479 13.9634 23.3173C14.4218 24.5867 15.1447 25.6004 16.132 26.3586C15.9204 26.8875 15.5678 27.3106 15.0742 27.628C14.5982 27.9453 14.078 28.104 13.5139 28.104C12.2268 28.104 11.2836 27.1343 10.6842 25.1949C10.4021 24.2958 10.1464 23.4142 9.91722 22.5503C9.30015 22.7619 8.53322 22.8677 7.61643 22.8677C6.71727 22.8677 5.60654 22.7707 4.28424 22.5768C3.73769 24.7101 3.46442 26.3145 3.46442 27.3899C3.46442 27.6191 3.47323 27.7866 3.49086 27.8924C3.26166 27.9277 2.87379 27.9453 2.32724 27.9453C1.78069 27.9453 1.29585 27.7778 0.872716 27.4428C0.467211 27.0902 0.264459 26.5966 0.264459 25.9619C0.264459 25.0803 1.11073 22.4975 2.80327 18.2132C4.49581 13.929 5.53601 10.9847 5.92389 9.38027ZM4.8925 20.3553C5.59772 20.4435 6.31176 20.4876 7.03462 20.4876C7.7751 20.4876 8.55966 20.4082 9.3883 20.2495C9.22963 19.5267 8.69189 16.7587 7.7751 11.9455C6.682 14.7841 5.72114 17.5873 4.8925 20.3553ZM29.7314 15.4893C29.2554 17.5168 29.0174 19.5531 29.0174 21.5983C29.0174 23.6258 29.2466 25.6357 29.705 27.628C29.0703 27.8395 28.4179 27.9453 27.748 27.9453C27.078 27.9453 26.6108 27.7514 26.3463 27.3635C26.0819 26.958 25.9497 26.385 25.9497 25.6445C25.9497 24.8864 26.0642 23.855 26.2934 22.5503C25.0417 25.2302 23.834 26.9227 22.6704 27.628C22.1414 27.9453 21.5949 28.104 21.0307 28.104C19.6908 28.104 18.6506 27.6103 17.9101 26.623C17.1696 25.6181 16.7994 24.3751 16.7994 22.8941C16.7994 20.6374 17.4252 18.6628 18.677 16.9703C19.9288 15.2601 21.5508 14.405 23.5431 14.405C25.553 14.405 27.6157 14.7664 29.7314 15.4893ZM26.267 17.076C25.3326 16.7939 24.5392 16.6529 23.8869 16.6529C22.5646 16.6529 21.5773 16.9438 20.9249 17.5256C20.3255 19.0066 20.0258 20.514 20.0258 22.0479C20.0258 22.8589 20.1492 23.6787 20.396 24.5073C20.6605 25.336 21.0572 25.7503 21.5861 25.7503C22.2031 25.7503 22.9965 24.8423 23.9662 23.0264C24.9359 21.2104 25.7028 19.227 26.267 17.076ZM34.4103 23.1322C34.3574 23.379 34.3309 23.5817 34.3309 23.7404C34.3309 24.4633 34.5425 25.0186 34.9656 25.4065C35.4064 25.7944 35.9882 25.9883 36.7111 25.9883C37.4516 25.9883 38.0598 25.8561 38.5358 25.5916C39.0295 25.3095 39.2763 24.8952 39.2763 24.3487C39.2763 23.8021 39.0119 23.3702 38.483 23.0528C37.9717 22.7178 37.3458 22.4534 36.6053 22.2594C35.8824 22.0655 35.1508 21.8539 34.4103 21.6247C33.6698 21.3779 33.0351 20.9988 32.5062 20.4876C31.9949 19.9763 31.7392 19.3328 31.7392 18.557C31.7392 17.3405 32.3828 16.3179 33.6698 15.4893C34.9568 14.6606 36.3056 14.2463 37.716 14.2463C39.2675 14.2463 40.4488 14.5637 41.2598 15.1984C41.7358 15.5686 41.9738 16.0623 41.9738 16.6793C41.9738 17.2788 41.7358 17.7724 41.2598 18.1603C40.8014 18.5306 40.2372 18.7157 39.5672 18.7157C39.4262 18.7157 39.2499 18.6981 39.0383 18.6628C39.0912 18.4336 39.1177 18.2308 39.1177 18.0545C39.1177 17.5432 38.9237 17.1554 38.5358 16.8909C38.148 16.6265 37.6191 16.4942 36.9491 16.4942C36.2968 16.4942 35.6973 16.6265 35.1508 16.8909C34.9392 17.173 34.8334 17.5344 34.8334 17.9752C34.8334 18.416 35.0891 18.7774 35.6003 19.0595C36.1116 19.3239 36.7287 19.562 37.4516 19.7735C38.192 19.9675 38.9325 20.1967 39.673 20.4611C40.4135 20.7079 41.0394 21.1046 41.5507 21.6512C42.062 22.1801 42.3176 22.8501 42.3176 23.6611C42.3176 24.9834 41.6565 26.0853 40.3342 26.9668C39.0295 27.8307 37.6808 28.2627 36.2879 28.2627C34.8951 28.2627 33.7403 28.0158 32.8235 27.5222C31.9244 27.0109 31.4748 26.244 31.4748 25.2214C31.4748 24.5867 31.704 24.0754 32.1624 23.6875C32.6384 23.282 33.2114 23.0793 33.8814 23.0793C34.0224 23.0793 34.1987 23.0969 34.4103 23.1322ZM56.3096 17.2612L56.0451 23.0793C56.0451 24.6308 56.3008 26.1999 56.812 27.7866C56.2655 27.9982 55.7101 28.104 55.146 28.104C53.6121 28.104 52.8452 27.293 52.8452 25.671C52.8452 24.4721 52.9509 23.0616 53.1625 21.4396C53.3741 19.8176 53.4799 18.8215 53.4799 18.4512C53.4799 17.5344 53.0655 17.076 52.2369 17.076C51.3554 17.076 50.3769 17.9047 49.3014 19.562C48.2259 21.2016 47.6089 22.5768 47.4502 23.6875C47.4854 24.1988 47.6618 25.5123 47.9791 27.628C47.4326 27.8395 46.8331 27.9453 46.1808 27.9453C44.8232 27.9453 44.1444 27.2842 44.1444 25.9619C44.1444 25.3272 44.2414 24.0842 44.4354 22.233C44.6293 20.3641 44.7263 18.8655 44.7263 17.7372C44.7263 13.9819 44.5147 10.8789 44.0916 8.42822C44.6557 8.21665 45.2375 8.11087 45.837 8.11087C46.4364 8.11087 46.9301 8.31362 47.318 8.71912C47.7235 9.107 47.9262 9.64473 47.9262 10.3323C47.9262 11.0199 47.8292 12.4392 47.6353 14.5901C47.459 16.7411 47.3708 18.416 47.3708 19.6148C47.9879 18.3102 48.8871 17.1201 50.0683 16.0446C51.2672 14.9515 52.4573 14.405 53.6385 14.405C55.4192 14.405 56.3096 15.3571 56.3096 17.2612Z" fill="white"/>
<path d="M77.7777 11.1917C78.3419 10.9097 78.9148 10.7686 79.4967 10.7686C80.0785 10.7686 80.5457 10.9537 80.8983 11.324C81.2685 11.6942 81.4537 12.2408 81.4537 12.9636C81.4537 13.6865 81.4096 14.5063 81.3214 15.4231C82.6437 15.4231 83.9043 15.238 85.1032 14.8677C85.3148 15.2203 85.4205 15.6347 85.4205 16.1107C85.4205 16.5691 85.209 16.9481 84.7858 17.2479C84.3803 17.53 83.966 17.671 83.5429 17.671C83.1198 17.671 82.6437 17.6181 82.1148 17.5123C81.5859 17.4065 81.2421 17.3448 81.0834 17.3272C81.0658 17.4859 81.0129 17.8032 80.9247 18.2793C80.8542 18.7553 80.7925 19.1696 80.7396 19.5222C80.5986 20.4919 80.528 21.5321 80.528 22.6428C80.528 25.0582 81.3126 26.2659 82.8817 26.2659C83.4635 26.2659 84.1335 26.0632 84.8916 25.6577C85.1208 25.9927 85.2354 26.4246 85.2354 26.9535C85.2354 27.4824 84.9445 27.8968 84.3627 28.1965C83.7985 28.4786 83.1198 28.6196 82.3264 28.6196C79.2234 28.6196 77.6719 26.8566 77.6719 23.3304C77.6719 22.8191 77.7424 21.8935 77.8835 20.5536C78.0421 19.2137 78.1215 18.1294 78.1215 17.3008C77.2752 17.3536 76.5964 17.5035 76.0851 17.7503C75.8736 17.433 75.7678 17.0716 75.7678 16.6661C75.7678 16.2429 75.9176 15.8991 76.2174 15.6347C76.5171 15.3526 76.8873 15.2115 77.3281 15.2115C77.7689 15.2115 78.0598 15.2203 78.2008 15.238C78.2184 15.0969 78.2273 14.9118 78.2273 14.6826C78.2273 13.3603 78.0774 12.1967 77.7777 11.1917ZM99.2658 16.0049C98.7898 18.0324 98.5518 20.0688 98.5518 22.1139C98.5518 24.1414 98.781 26.1513 99.2394 28.1436C98.6047 28.3552 97.9523 28.4609 97.2824 28.4609C96.6124 28.4609 96.1452 28.267 95.8807 27.8791C95.6163 27.4736 95.484 26.9006 95.484 26.1601C95.484 25.402 95.5986 24.3706 95.8278 23.066C94.5761 25.7458 93.3684 27.4384 92.2048 28.1436C91.6758 28.4609 91.1293 28.6196 90.5651 28.6196C89.2252 28.6196 88.185 28.126 87.4445 27.1386C86.704 26.1337 86.3338 24.8907 86.3338 23.4098C86.3338 21.153 86.9596 19.1784 88.2114 17.4859C89.4632 15.7757 91.0852 14.9206 93.0775 14.9206C95.0874 14.9206 97.1501 15.2821 99.2658 16.0049ZM95.8014 17.5917C94.867 17.3096 94.0736 17.1685 93.4213 17.1685C92.099 17.1685 91.1117 17.4594 90.4593 18.0412C89.8599 19.5222 89.5602 21.0296 89.5602 22.5635C89.5602 23.3745 89.6836 24.1943 89.9304 25.023C90.1949 25.8516 90.5915 26.2659 91.1205 26.2659C91.7375 26.2659 92.5309 25.3579 93.5006 23.542C94.4703 21.726 95.2372 19.7426 95.8014 17.5917Z" fill="white"/>
</svg>
