<svg width="2794" height="911" viewBox="0 0 2794 911" fill="none" xmlns="http://www.w3.org/2000/svg">
<g filter="url(#filter0_f_785_10907)">
<path d="M1382.87 415.711C1133.49 415.711 533.331 362.659 200 200L200.831 710.5C353.227 641.599 802.989 502.196 1382.87 495.789C1962.75 489.383 2431.91 636.594 2594 711V200C2225.76 368.665 1648.87 415.711 1382.87 415.711Z" fill="url(#paint0_linear_785_10907)"/>
</g>
<g filter="url(#filter1_f_785_10907)">
<path d="M1387.11 430.505C1212.52 430.505 792.36 397.179 559 295L559.582 615.686C666.272 572.404 981.142 484.833 1387.11 480.809C1793.07 476.785 2121.52 569.26 2235 616V295C1977.2 400.952 1573.33 430.505 1387.11 430.505Z" fill="url(#paint1_linear_785_10907)"/>
</g>
<defs>
<filter id="filter0_f_785_10907" x="0" y="0" width="2794" height="911" filterUnits="userSpaceOnUse" color-interpolation-filters="sRGB">
<feFlood flood-opacity="0" result="BackgroundImageFix"/>
<feBlend mode="normal" in="SourceGraphic" in2="BackgroundImageFix" result="shape"/>
<feGaussianBlur stdDeviation="100" result="effect1_foregroundBlur_785_10907"/>
</filter>
<filter id="filter1_f_785_10907" x="399" y="135" width="1996" height="641" filterUnits="userSpaceOnUse" color-interpolation-filters="sRGB">
<feFlood flood-opacity="0" result="BackgroundImageFix"/>
<feBlend mode="normal" in="SourceGraphic" in2="BackgroundImageFix" result="shape"/>
<feGaussianBlur stdDeviation="80" result="effect1_foregroundBlur_785_10907"/>
</filter>
<linearGradient id="paint0_linear_785_10907" x1="1397" y1="200" x2="1397" y2="711" gradientUnits="userSpaceOnUse">
<stop stop-color="#5FEAD3"/>
<stop offset="0.47668" stop-color="#10F9D2"/>
<stop offset="0.701256" stop-color="#00FAD1"/>
<stop offset="0.858344" stop-color="#1BFFD9"/>
<stop offset="1" stop-color="#97FFEE"/>
</linearGradient>
<linearGradient id="paint1_linear_785_10907" x1="559" y1="455.663" x2="2235" y2="455.664" gradientUnits="userSpaceOnUse">
<stop stop-color="#5FEAD3"/>
<stop offset="0.292044" stop-color="#0AEAC5"/>
<stop offset="0.498854" stop-color="#AAF9EC"/>
<stop offset="0.701311" stop-color="#40E6CB"/>
<stop offset="1" stop-color="#97FFEE"/>
</linearGradient>
</defs>
</svg>
