<svg preserveAspectRatio="none" width="100%" height="100%" overflow="visible" style="display: block;" viewBox="0 0 1225.87 793.322" fill="none" xmlns="http://www.w3.org/2000/svg">
<g id="Ellipse 993" filter="url(#filter0_if_0_27)">
<ellipse cx="612.933" cy="396.661" rx="532.933" ry="316.661" fill="url(#paint0_linear_0_27)" fill-opacity="0.2"/>
<path d="M612.933 80.5C760.024 80.5 893.166 115.927 989.519 173.178C1085.88 230.435 1145.37 309.465 1145.37 396.661C1145.37 483.857 1085.88 562.887 989.519 620.145C893.166 677.396 760.024 712.822 612.933 712.822C465.842 712.822 332.7 677.396 236.348 620.145C139.985 562.887 80.5001 483.858 80.5 396.661C80.5 309.465 139.985 230.435 236.348 173.178C332.7 115.927 465.842 80.5001 612.933 80.5Z" stroke="var(--stroke-0, #70F2DB)"/>
</g>
<defs>
<filter id="filter0_if_0_27" x="0" y="0" width="1225.87" height="793.322" filterUnits="userSpaceOnUse" color-interpolation-filters="sRGB">
<feFlood flood-opacity="0" result="BackgroundImageFix"/>
<feBlend mode="normal" in="SourceGraphic" in2="BackgroundImageFix" result="shape"/>
<feColorMatrix in="SourceAlpha" type="matrix" values="0 0 0 0 0 0 0 0 0 0 0 0 0 0 0 0 0 0 127 0" result="hardAlpha"/>
<feMorphology radius="6" operator="erode" in="SourceAlpha" result="effect1_innerShadow_0_27"/>
<feOffset dx="20" dy="20"/>
<feComposite in2="hardAlpha" operator="arithmetic" k2="-1" k3="1"/>
<feColorMatrix type="matrix" values="0 0 0 0 0.0288462 0 0 0 0 1 0 0 0 0 0.792618 0 0 0 0.2 0"/>
<feBlend mode="normal" in2="shape" result="effect1_innerShadow_0_27"/>
<feGaussianBlur stdDeviation="40" result="effect2_foregroundBlur_0_27"/>
</filter>
<linearGradient id="paint0_linear_0_27" x1="1142.5" y1="328.672" x2="96.9789" y2="408.769" gradientUnits="userSpaceOnUse">
<stop stop-color="#7DE8DA"/>
<stop offset="0.0895633" stop-color="#7BF3E3"/>
<stop offset="0.75" stop-color="#68F3DF"/>
<stop offset="1" stop-color="#8BFBEC"/>
</linearGradient>
</defs>
</svg>
